<?xml version="1.0" encoding="UTF-8" standalone="no"?>
<svg
   xmlns:dc="http://purl.org/dc/elements/1.1/"
   xmlns:cc="http://creativecommons.org/ns#"
   xmlns:rdf="http://www.w3.org/1999/02/22-rdf-syntax-ns#"
   xmlns:svg="http://www.w3.org/2000/svg"
   xmlns="http://www.w3.org/2000/svg"
   xmlns:sodipodi="http://sodipodi.sourceforge.net/DTD/sodipodi-0.dtd"
   xmlns:inkscape="http://www.inkscape.org/namespaces/inkscape"
   inkscape:version="1.0 (4035a4fb49, 2020-05-01)"
   sodipodi:docname="arrow.svg"
   id="svg4"
   version="1.1"
   fill="none"
   viewBox="0 0 19 12"
   height="12"
   width="19">
  <metadata
     id="metadata10">
    <rdf:RDF>
      <cc:Work
         rdf:about="">
        <dc:format>image/svg+xml</dc:format>
        <dc:type
           rdf:resource="http://purl.org/dc/dcmitype/StillImage" />
      </cc:Work>
    </rdf:RDF>
  </metadata>
  <defs
     id="defs8" />
  <sodipodi:namedview
     inkscape:current-layer="svg4"
     inkscape:window-maximized="1"
     inkscape:window-y="-8"
     inkscape:window-x="-8"
     inkscape:cy="9.4515766"
     inkscape:cx="10.242384"
     inkscape:zoom="24.451008"
     showgrid="false"
     id="namedview6"
     inkscape:window-height="1017"
     inkscape:window-width="1920"
     inkscape:pageshadow="2"
     inkscape:pageopacity="0"
     guidetolerance="10"
     gridtolerance="10"
     objecttolerance="10"
     borderopacity="1"
     bordercolor="#666666"
     pagecolor="#ffffff" />
  <path
     id="path14"
     d="M 13.179688 0.6015625 A 0.89999998 0.89999998 0 0 0 12.5625 0.8828125 A 0.89999998 0.89999998 0 0 0 12.601562 2.15625 L 15.728516 5.0996094 L 1 5.0996094 A 0.89999998 0.89999998 0 0 0 0.099609375 6 A 0.89999998 0.89999998 0 0 0 1 6.9003906 L 15.728516 6.9003906 L 12.601562 9.84375 A 0.89999998 0.89999998 0 0 0 12.5625 11.117188 A 0.89999998 0.89999998 0 0 0 13.835938 11.15625 L 18.613281 6.6582031 L 18.615234 6.6582031 A 0.89999998 0.89999998 0 0 0 18.617188 6.65625 A 0.89999998 0.89999998 0 0 0 18.630859 6.6425781 A 0.89999998 0.89999998 0 0 0 18.644531 6.6289062 A 0.89999998 0.89999998 0 0 0 18.65625 6.6171875 A 0.89999998 0.89999998 0 0 0 18.669922 6.5996094 A 0.89999998 0.89999998 0 0 0 18.671875 6.5976562 A 0.89999998 0.89999998 0 0 0 18.695312 6.5703125 A 0.89999998 0.89999998 0 0 0 18.697266 6.5683594 A 0.89999998 0.89999998 0 0 0 18.707031 6.5566406 A 0.89999998 0.89999998 0 0 0 18.722656 6.5371094 A 0.89999998 0.89999998 0 0 0 18.738281 6.5136719 A 0.89999998 0.89999998 0 0 0 18.740234 6.5097656 A 0.89999998 0.89999998 0 0 0 18.744141 6.5058594 A 0.89999998 0.89999998 0 0 0 18.753906 6.4921875 A 0.89999998 0.89999998 0 0 0 18.767578 6.4707031 A 0.89999998 0.89999998 0 0 0 18.779297 6.4511719 A 0.89999998 0.89999998 0 0 0 18.787109 6.4375 A 0.89999998 0.89999998 0 0 0 18.794922 6.4238281 A 0.89999998 0.89999998 0 0 0 18.794922 6.421875 A 0.89999998 0.89999998 0 0 0 18.800781 6.4101562 A 0.89999998 0.89999998 0 0 0 18.806641 6.4003906 A 0.89999998 0.89999998 0 0 0 18.814453 6.3808594 A 0.89999998 0.89999998 0 0 0 18.818359 6.3730469 A 0.89999998 0.89999998 0 0 0 18.824219 6.359375 A 0.89999998 0.89999998 0 0 0 18.828125 6.3515625 A 0.89999998 0.89999998 0 0 0 18.837891 6.328125 A 0.89999998 0.89999998 0 0 0 18.845703 6.3066406 A 0.89999998 0.89999998 0 0 0 18.851562 6.2910156 A 0.89999998 0.89999998 0 0 0 18.851562 6.2890625 A 0.89999998 0.89999998 0 0 0 18.859375 6.265625 A 0.89999998 0.89999998 0 0 0 18.863281 6.2519531 A 0.89999998 0.89999998 0 0 0 18.871094 6.21875 A 0.89999998 0.89999998 0 0 0 18.873047 6.2148438 A 0.89999998 0.89999998 0 0 0 18.876953 6.1992188 A 0.89999998 0.89999998 0 0 0 18.878906 6.1894531 A 0.89999998 0.89999998 0 0 0 18.882812 6.1738281 A 0.89999998 0.89999998 0 0 0 18.884766 6.1582031 A 0.89999998 0.89999998 0 0 0 18.888672 6.1367188 A 0.89999998 0.89999998 0 0 0 18.890625 6.1269531 A 0.89999998 0.89999998 0 0 0 18.894531 6.0976562 A 0.89999998 0.89999998 0 0 0 18.894531 6.0957031 A 0.89999998 0.89999998 0 0 0 18.896484 6.0800781 A 0.89999998 0.89999998 0 0 0 18.896484 6.078125 A 0.89999998 0.89999998 0 0 0 18.898438 6.0566406 A 0.89999998 0.89999998 0 0 0 18.898438 6.0410156 A 0.89999998 0.89999998 0 0 0 18.898438 6.0292969 A 0.89999998 0.89999998 0 0 0 18.900391 6.015625 A 0.89999998 0.89999998 0 0 0 18.900391 6 A 0.89999998 0.89999998 0 0 0 18.898438 5.9609375 A 0.89999998 0.89999998 0 0 0 18.896484 5.9199219 A 0.89999998 0.89999998 0 0 0 18.894531 5.8984375 A 0.89999998 0.89999998 0 0 0 18.892578 5.8828125 A 0.89999998 0.89999998 0 0 0 18.888672 5.8574219 A 0.89999998 0.89999998 0 0 0 18.886719 5.8417969 A 0.89999998 0.89999998 0 0 0 18.878906 5.8027344 A 0.89999998 0.89999998 0 0 0 18.876953 5.7949219 A 0.89999998 0.89999998 0 0 0 18.875 5.7890625 A 0.89999998 0.89999998 0 0 0 18.873047 5.7792969 A 0.89999998 0.89999998 0 0 0 18.869141 5.7636719 A 0.89999998 0.89999998 0 0 0 18.863281 5.75 A 0.89999998 0.89999998 0 0 0 18.861328 5.7382812 A 0.89999998 0.89999998 0 0 0 18.857422 5.7265625 A 0.89999998 0.89999998 0 0 0 18.849609 5.703125 A 0.89999998 0.89999998 0 0 0 18.84375 5.6875 A 0.89999998 0.89999998 0 0 0 18.837891 5.671875 A 0.89999998 0.89999998 0 0 0 18.830078 5.6523438 A 0.89999998 0.89999998 0 0 0 18.822266 5.6347656 A 0.89999998 0.89999998 0 0 0 18.820312 5.6289062 A 0.89999998 0.89999998 0 0 0 18.8125 5.6152344 A 0.89999998 0.89999998 0 0 0 18.8125 5.6132812 A 0.89999998 0.89999998 0 0 0 18.794922 5.5800781 A 0.89999998 0.89999998 0 0 0 18.783203 5.5566406 A 0.89999998 0.89999998 0 0 0 18.779297 5.5507812 A 0.89999998 0.89999998 0 0 0 18.775391 5.5429688 A 0.89999998 0.89999998 0 0 0 18.761719 5.5214844 A 0.89999998 0.89999998 0 0 0 18.761719 5.5195312 A 0.89999998 0.89999998 0 0 0 18.755859 5.5117188 A 0.89999998 0.89999998 0 0 0 18.742188 5.4902344 A 0.89999998 0.89999998 0 0 0 18.732422 5.4765625 A 0.89999998 0.89999998 0 0 0 18.720703 5.4609375 A 0.89999998 0.89999998 0 0 0 18.71875 5.4589844 A 0.89999998 0.89999998 0 0 0 18.708984 5.4453125 A 0.89999998 0.89999998 0 0 0 18.693359 5.4257812 A 0.89999998 0.89999998 0 0 0 18.683594 5.4140625 A 0.89999998 0.89999998 0 0 0 18.675781 5.40625 A 0.89999998 0.89999998 0 0 0 18.667969 5.3945312 A 0.89999998 0.89999998 0 0 0 18.658203 5.3847656 A 0.89999998 0.89999998 0 0 0 18.65625 5.3828125 A 0.89999998 0.89999998 0 0 0 18.628906 5.3554688 A 0.89999998 0.89999998 0 0 0 18.617188 5.34375 L 13.835938 0.84375 A 0.89999998 0.89999998 0 0 0 13.179688 0.6015625 z "
     style="color:#000000;font-style:normal;font-variant:normal;font-weight:normal;font-stretch:normal;font-size:medium;line-height:normal;font-family:sans-serif;font-variant-ligatures:normal;font-variant-position:normal;font-variant-caps:normal;font-variant-numeric:normal;font-variant-alternates:normal;font-variant-east-asian:normal;font-feature-settings:normal;font-variation-settings:normal;text-indent:0;text-align:start;text-decoration:none;text-decoration-line:none;text-decoration-style:solid;text-decoration-color:#000000;letter-spacing:normal;word-spacing:normal;text-transform:none;writing-mode:lr-tb;direction:ltr;text-orientation:mixed;dominant-baseline:auto;baseline-shift:baseline;text-anchor:start;white-space:normal;shape-padding:0;shape-margin:0;inline-size:0;clip-rule:nonzero;display:inline;overflow:visible;visibility:visible;isolation:auto;mix-blend-mode:normal;color-interpolation:sRGB;color-interpolation-filters:linearRGB;solid-color:#000000;solid-opacity:1;vector-effect:none;fill:#ffffff;fill-opacity:1;fill-rule:nonzero;stroke:none;stroke-width:1.8;stroke-linecap:round;stroke-linejoin:round;stroke-miterlimit:4;stroke-dasharray:none;stroke-dashoffset:0;stroke-opacity:1;color-rendering:auto;image-rendering:auto;shape-rendering:auto;text-rendering:auto;enable-background:accumulate;stop-color:#000000;stop-opacity:1;opacity:1" />
</svg>
