<?xml version="1.0" encoding="UTF-8" standalone="no"?>
<svg
   xmlns:dc="http://purl.org/dc/elements/1.1/"
   xmlns:cc="http://creativecommons.org/ns#"
   xmlns:rdf="http://www.w3.org/1999/02/22-rdf-syntax-ns#"
   xmlns:svg="http://www.w3.org/2000/svg"
   xmlns="http://www.w3.org/2000/svg"
   xmlns:sodipodi="http://sodipodi.sourceforge.net/DTD/sodipodi-0.dtd"
   xmlns:inkscape="http://www.inkscape.org/namespaces/inkscape"
   inkscape:version="1.0 (4035a4fb49, 2020-05-01)"
   sodipodi:docname="cart.svg"
   id="svg148"
   version="1.1"
   fill="none"
   viewBox="0 0 20 20"
   height="20"
   width="20">
  <metadata
     id="metadata154">
    <rdf:RDF>
      <cc:Work
         rdf:about="">
        <dc:format>image/svg+xml</dc:format>
        <dc:type
           rdf:resource="http://purl.org/dc/dcmitype/StillImage" />
      </cc:Work>
    </rdf:RDF>
  </metadata>
  <defs
     id="defs152" />
  <sodipodi:namedview
     inkscape:current-layer="svg148"
     inkscape:window-maximized="1"
     inkscape:window-y="-8"
     inkscape:window-x="-8"
     inkscape:cy="23.59798"
     inkscape:cx="13.425971"
     inkscape:zoom="10.625"
     showgrid="false"
     id="namedview150"
     inkscape:window-height="1017"
     inkscape:window-width="1920"
     inkscape:pageshadow="2"
     inkscape:pageopacity="0"
     guidetolerance="10"
     gridtolerance="10"
     objecttolerance="10"
     borderopacity="1"
     bordercolor="#666666"
     pagecolor="#ffffff" />
  <path
     id="path158"
     d="M 10 0.099609375 C 7.3044644 0.099609375 5.0996094 2.3044644 5.0996094 5 L 5.0996094 7.0996094 L 3 7.0996094 A 0.90008998 0.90008998 0 0 0 2.1152344 7.8398438 L 0.11523438 18.839844 A 0.90008998 0.90008998 0 0 0 1 19.900391 L 19 19.900391 A 0.90008998 0.90008998 0 0 0 19.884766 18.839844 L 17.884766 7.8398438 A 0.90008998 0.90008998 0 0 0 17 7.0996094 L 14.900391 7.0996094 L 14.900391 5 C 14.900391 2.3044535 12.695504 0.099609375 10 0.099609375 z M 10 1.9003906 C 11.722696 1.9003906 13.099609 3.2772665 13.099609 5 L 13.099609 7.0996094 L 6.9003906 7.0996094 L 6.9003906 5 C 6.9003906 3.2772556 8.2772556 1.9003906 10 1.9003906 z M 3.7519531 8.9003906 L 5.0996094 8.9003906 L 5.0996094 11 A 0.89999998 0.89999998 0 0 0 6 11.900391 A 0.89999998 0.89999998 0 0 0 6.9003906 11 L 6.9003906 8.9003906 L 13.099609 8.9003906 L 13.099609 11 A 0.89999998 0.89999998 0 0 0 14 11.900391 A 0.89999998 0.89999998 0 0 0 14.900391 11 L 14.900391 8.9003906 L 16.248047 8.9003906 L 17.921875 18.099609 L 2.078125 18.099609 L 3.7519531 8.9003906 z "
     style="color:#000000;font-style:normal;font-variant:normal;font-weight:normal;font-stretch:normal;font-size:medium;line-height:normal;font-family:sans-serif;font-variant-ligatures:normal;font-variant-position:normal;font-variant-caps:normal;font-variant-numeric:normal;font-variant-alternates:normal;font-variant-east-asian:normal;font-feature-settings:normal;font-variation-settings:normal;text-indent:0;text-align:start;text-decoration:none;text-decoration-line:none;text-decoration-style:solid;text-decoration-color:#000000;letter-spacing:normal;word-spacing:normal;text-transform:none;writing-mode:lr-tb;direction:ltr;text-orientation:mixed;dominant-baseline:auto;baseline-shift:baseline;text-anchor:start;white-space:normal;shape-padding:0;shape-margin:0;inline-size:0;clip-rule:nonzero;display:inline;overflow:visible;visibility:visible;isolation:auto;mix-blend-mode:normal;color-interpolation:sRGB;color-interpolation-filters:linearRGB;solid-color:#000000;solid-opacity:1;vector-effect:none;fill:#ffffff;fill-opacity:1;fill-rule:nonzero;stroke:none;stroke-width:1.8;stroke-linecap:round;stroke-linejoin:round;stroke-miterlimit:4;stroke-dasharray:none;stroke-dashoffset:0;stroke-opacity:1;color-rendering:auto;image-rendering:auto;shape-rendering:auto;text-rendering:auto;enable-background:accumulate;stop-color:#000000;stop-opacity:1;opacity:1" />
</svg>
