<svg width="30" height="30" viewBox="0 0 30 30" fill="none" xmlns="http://www.w3.org/2000/svg">
<g clip-path="url(#clip0)">
<path d="M23.1251 11.8745H5.62468C4.59088 11.8745 3.74963 12.7158 3.74963 13.7496V14.9996C3.74963 19.4597 6.21344 23.5048 10.1785 25.5561C10.4848 25.7136 10.8623 25.5948 11.0211 25.2873C11.1786 24.981 11.0598 24.6036 10.7523 24.4448C7.20469 22.6097 4.99964 18.9909 4.99964 14.9995V13.7495C4.99964 13.4045 5.27967 13.1245 5.62468 13.1245H23.1251C23.4701 13.1245 23.7501 13.4045 23.7501 13.7495V14.9995C23.7501 18.9908 21.5451 22.6097 17.9963 24.4435C17.6888 24.6022 17.57 24.9797 17.7275 25.286C17.8388 25.501 18.0575 25.6248 18.2837 25.6248C18.3812 25.6248 18.4787 25.6022 18.57 25.5547C22.5363 23.5047 25.0002 19.4608 25.0002 14.9995V13.7494C25.0002 12.7158 24.1588 11.8745 23.1251 11.8745Z" fill="#7CCA63"/>
<path d="M28.7037 24.7598C28.6062 24.5261 28.3787 24.3735 28.1262 24.3735H0.625575C0.373089 24.3735 0.145564 24.5261 0.0480619 24.7598C-0.0494404 24.9935 0.00429136 25.2623 0.183065 25.4411L1.58437 26.8436C2.41191 27.6699 3.50939 28.1249 4.67819 28.1249H24.0711C25.2399 28.1249 26.3387 27.6699 27.1675 26.8436L28.5688 25.4411C28.7475 25.2623 28.8012 24.9935 28.7037 24.7598ZM26.2824 25.9598C25.6925 26.5498 24.9062 26.8748 24.0724 26.8748H4.67819C3.84444 26.8748 3.05815 26.5498 2.46816 25.9598L2.13317 25.6248H26.6174L26.2824 25.9598Z" fill="#7CCA63"/>
<path d="M28.7914 14.8259C27.1076 13.7434 24.4176 14.9184 24.1163 15.0547C23.8025 15.1984 23.6625 15.5684 23.8063 15.8835C23.95 16.1985 24.3188 16.3372 24.635 16.1935C25.2376 15.9197 27.1701 15.271 28.1151 15.8797C28.5414 16.1535 28.7501 16.6847 28.7501 17.4997C28.7501 20.0023 23.7025 21.5148 21.7537 21.8873L21.3112 21.9748C20.9724 22.0411 20.7524 22.3698 20.8187 22.7086C20.8774 23.0061 21.1387 23.2123 21.4312 23.2123C21.4712 23.2123 21.5111 23.2086 21.5524 23.1999L21.9912 23.1136C22.3186 23.0511 30.0001 21.5448 30.0001 17.4997C30.0002 16.2422 29.5927 15.3434 28.7914 14.8259Z" fill="#7CCA63"/>
<path d="M19.2412 6.63933C20.2575 5.36928 20.2575 3.38051 19.2412 2.11046C19.025 1.84045 18.6337 1.79545 18.3625 2.01296C18.0925 2.22923 18.0487 2.6217 18.265 2.89171C18.9088 3.69546 18.9088 5.05428 18.2637 5.86055C17.2462 7.1306 17.2462 9.11937 18.2637 10.3894C18.3875 10.5444 18.5687 10.6244 18.7525 10.6244C18.8887 10.6244 19.0275 10.5794 19.1425 10.4869C19.4125 10.2706 19.4563 9.87689 19.24 9.60817C18.595 8.80437 18.595 7.4456 19.2412 6.63933Z" fill="#7CCA63"/>
<path d="M15.4858 6.63955C16.5033 5.3695 16.5033 3.38072 15.4858 2.11067C15.2708 1.84067 14.877 1.7969 14.607 2.01317C14.337 2.22945 14.2933 2.62321 14.5095 2.89192C15.1545 3.69567 15.1545 5.05449 14.5083 5.86076C13.492 7.13081 13.492 9.11959 14.5083 10.3896C14.6321 10.5446 14.8133 10.6247 14.997 10.6247C15.1333 10.6247 15.2708 10.5797 15.387 10.4871C15.6571 10.2709 15.7008 9.87839 15.4845 9.60839C14.8408 8.80458 14.8408 7.44582 15.4858 6.63955Z" fill="#7CCA63"/>
<path d="M11.7411 6.64055C12.7574 5.37051 12.7574 3.38173 11.7411 2.11168C11.5261 1.84167 11.1336 1.79667 10.8624 2.01418C10.5936 2.22916 10.5499 2.62292 10.7649 2.8917C11.4086 3.69545 11.4086 5.05427 10.7636 5.86054C9.74611 7.13059 9.74611 9.11936 10.7636 10.3894C10.8874 10.5444 11.0686 10.6244 11.2524 10.6244C11.3886 10.6244 11.5274 10.5794 11.6424 10.4882C11.9124 10.2719 11.9562 9.87817 11.7399 9.60945C11.0949 8.80435 11.0949 7.44682 11.7411 6.64055Z" fill="#7CCA63"/>
</g>
<defs>
<clipPath id="clip0">
<rect width="30" height="30" fill="white"/>
</clipPath>
</defs>
</svg>
