<?xml version="1.0" encoding="UTF-8" standalone="no"?>
<svg
   xmlns:dc="http://purl.org/dc/elements/1.1/"
   xmlns:cc="http://creativecommons.org/ns#"
   xmlns:rdf="http://www.w3.org/1999/02/22-rdf-syntax-ns#"
   xmlns:svg="http://www.w3.org/2000/svg"
   xmlns="http://www.w3.org/2000/svg"
   xmlns:sodipodi="http://sodipodi.sourceforge.net/DTD/sodipodi-0.dtd"
   xmlns:inkscape="http://www.inkscape.org/namespaces/inkscape"
   inkscape:version="1.0 (4035a4fb49, 2020-05-01)"
   sodipodi:docname="delivery.svg"
   id="svg257"
   version="1.1"
   fill="none"
   viewBox="0 0 22 22"
   height="22"
   width="22">
  <metadata
     id="metadata263">
    <rdf:RDF>
      <cc:Work
         rdf:about="">
        <dc:format>image/svg+xml</dc:format>
        <dc:type
           rdf:resource="http://purl.org/dc/dcmitype/StillImage" />
      </cc:Work>
    </rdf:RDF>
  </metadata>
  <defs
     id="defs261" />
  <sodipodi:namedview
     inkscape:current-layer="svg257"
     inkscape:window-maximized="0"
     inkscape:window-y="0"
     inkscape:window-x="0"
     inkscape:cy="7.8674433"
     inkscape:cx="-3.9398322"
     inkscape:zoom="4.8295455"
     showgrid="false"
     id="namedview259"
     inkscape:window-height="480"
     inkscape:window-width="708"
     inkscape:pageshadow="2"
     inkscape:pageopacity="0"
     guidetolerance="10"
     gridtolerance="10"
     objecttolerance="10"
     borderopacity="1"
     bordercolor="#666666"
     pagecolor="#ffffff" />
  <g
     style="opacity:1"
     id="g265">
    <path
       id="path267"
       d="m 1.9,11.2439 c 0,-0.4971 -0.40294,-0.9 -0.9,-0.9 -0.497056,0 -0.9,0.4029 -0.9,0.9 z M 3.85753,4.34526 3.22113,3.70886 v 1e-5 z M 2.81255,5.39024 h -0.9 c 0,0.49705 0.40294,0.9 0.9,0.9 z M 3.71255,1 c 0,-0.497056 -0.40294,-0.9 -0.9,-0.9 -0.49706,0 -0.9,0.402944 -0.9,0.9 z m 3.49239,5.29024 c 0.49706,0 0.9,-0.40295 0.9,-0.9 0,-0.49706 -0.40294,-0.9 -0.9,-0.9 z M 19.6122,11.2439 c 0,4.8911 -3.965,8.8561 -8.8561,8.8561 v 1.8 c 5.8852,0 10.6561,-4.7709 10.6561,-10.6561 z M 10.7561,20.1 C 5.86501,20.1 1.9,16.135 1.9,11.2439 H 0.1 C 0.1,17.1291 4.8709,21.9 10.7561,21.9 Z m 0,-17.7122 c 4.8911,0 8.8561,3.96501 8.8561,8.8561 h 1.8 C 21.4122,5.3587 16.6413,0.587798 10.7561,0.587798 Z M 4.49392,4.98166 C 6.09754,3.37805 8.31032,2.3878 10.7561,2.3878 V 0.587798 c -2.94233,0 -5.60758,1.193692 -7.53497,3.121062 z M 3.22113,3.70887 2.17616,4.75384 3.44895,6.02663 4.49392,4.98166 Z M 3.71255,5.39024 V 1 h -1.8 v 4.39024 z m -0.9,0.9 h 4.39239 v -1.8 H 2.81255 Z"
       style="color:#000000;font-style:normal;font-variant:normal;font-weight:normal;font-stretch:normal;font-size:medium;line-height:normal;font-family:sans-serif;font-variant-ligatures:normal;font-variant-position:normal;font-variant-caps:normal;font-variant-numeric:normal;font-variant-alternates:normal;font-variant-east-asian:normal;font-feature-settings:normal;font-variation-settings:normal;text-indent:0;text-align:start;text-decoration:none;text-decoration-line:none;text-decoration-style:solid;text-decoration-color:#000000;letter-spacing:normal;word-spacing:normal;text-transform:none;writing-mode:lr-tb;direction:ltr;text-orientation:mixed;dominant-baseline:auto;baseline-shift:baseline;text-anchor:start;white-space:normal;shape-padding:0;shape-margin:0;inline-size:0;clip-rule:nonzero;display:inline;overflow:visible;visibility:visible;isolation:auto;mix-blend-mode:normal;color-interpolation:sRGB;color-interpolation-filters:linearRGB;solid-color:#000000;solid-opacity:1;vector-effect:none;fill:#7cca63;fill-opacity:1;fill-rule:nonzero;stroke-width:1;stroke-linecap:butt;stroke-linejoin:miter;stroke-miterlimit:4;stroke-dasharray:none;stroke-dashoffset:0;stroke-opacity:1.0;color-rendering:auto;image-rendering:auto;shape-rendering:auto;text-rendering:auto;enable-background:accumulate;stop-color:#000000;stop-opacity:1;stroke:none;" />
    <path
       id="path269"
       d="M 2.8125 -0.40039062 C 2.2393829 -0.40039062 1.8364558 0.0015780947 1.6210938 0.5 L 1.4121094 0.5 L 1.4121094 1 L 1.4121094 1.5 L 1.4121094 4.890625 L 1.4121094 5.390625 L 1.4121094 5.890625 L 1.6210938 5.890625 C 1.7634946 6.2201908 1.9829332 6.4396286 2.3125 6.5820312 L 2.3125 6.7910156 L 2.8125 6.7910156 L 3.3125 6.7910156 L 6.7050781 6.7910156 L 7.2050781 6.7910156 L 7.7050781 6.7910156 L 7.7050781 6.5820312 C 8.2035012 6.3666675 8.6054688 5.9637366 8.6054688 5.390625 C 8.6054688 4.8175099 8.2035003 4.4145815 7.7050781 4.1992188 L 7.7050781 3.9902344 L 7.2050781 3.9902344 L 6.8398438 3.9902344 C 8.0227049 3.3476603 9.3122321 2.8886719 10.755859 2.8886719 C 15.37674 2.8886719 19.111328 6.6232699 19.111328 11.244141 C 19.111328 15.865022 15.376741 19.599609 10.755859 19.599609 C 6.1349886 19.599609 2.4003906 15.865021 2.4003906 11.244141 L 2.4003906 10.744141 L 2.1914062 10.744141 C 1.9760372 10.245716 1.573095 9.84375 1 9.84375 C 0.42690635 9.84375 0.023963197 10.245716 -0.19140625 10.744141 L -0.40039062 10.744141 L -0.40039062 11.244141 L -0.40039062 11.744141 L -0.29882812 11.744141 C -0.030310353 17.479193 4.5208073 22.03031 10.255859 22.298828 L 10.255859 22.400391 L 10.755859 22.400391 L 11.255859 22.400391 L 11.255859 22.298828 C 16.990911 22.03031 21.542029 17.479193 21.810547 11.744141 L 21.912109 11.744141 L 21.912109 11.244141 L 21.912109 10.744141 L 21.810547 10.744141 C 21.542029 5.0090884 16.990912 0.457971 11.255859 0.18945312 L 11.255859 0.087890625 L 10.755859 0.087890625 L 10.255859 0.087890625 L 10.255859 0.18945312 C 7.9650611 0.29664386 5.9397766 1.1627778 4.2128906 2.4492188 L 4.2128906 1.5 L 4.2128906 1 L 4.2128906 0.5 L 4.0039062 0.5 C 3.7885442 0.0015780947 3.3856171 -0.40039062 2.8125 -0.40039062 z M 10.255859 1.1894531 L 10.255859 1.9902344 C 8.2901476 2.0998134 6.5467361 2.849538 5.0878906 3.9902344 L 4.2128906 3.9902344 L 4.2128906 3.6328125 C 5.864801 2.2128569 7.9339066 1.3085331 10.255859 1.1894531 z M 11.255859 1.1894531 C 16.448951 1.4551863 20.544814 5.5510491 20.810547 10.744141 L 20.009766 10.744141 C 19.744846 6.0029434 15.997065 2.2551544 11.255859 1.9902344 L 11.255859 1.1894531 z M 2.4121094 1.5 L 3.2128906 1.5 L 3.2128906 2.9941406 L 2.7207031 2.5019531 L 2.7207031 3.5019531 L 2.5136719 3.7089844 L 2.4121094 3.8105469 L 2.4121094 1.5 z M 5.359375 4.9902344 L 6.7050781 4.9902344 L 6.7050781 5.7910156 L 4.3925781 5.7910156 L 4.4941406 5.6894531 L 4.8476562 5.3359375 C 4.9935809 5.1900138 5.2031598 5.1250599 5.359375 4.9902344 z M 0.70117188 11.744141 L 1.5019531 11.744141 C 1.7668481 16.485389 5.5146187 20.233153 10.255859 20.498047 L 10.255859 21.298828 C 5.0627679 21.033095 0.9669049 16.937232 0.70117188 11.744141 z M 20.009766 11.744141 L 20.810547 11.744141 C 20.544814 16.937232 16.448951 21.033095 11.255859 21.298828 L 11.255859 20.498047 C 15.99709 20.233154 19.744845 16.485364 20.009766 11.744141 z "
       style="color:#000000;font-style:normal;font-variant:normal;font-weight:normal;font-stretch:normal;font-size:medium;line-height:normal;font-family:sans-serif;font-variant-ligatures:normal;font-variant-position:normal;font-variant-caps:normal;font-variant-numeric:normal;font-variant-alternates:normal;font-variant-east-asian:normal;font-feature-settings:normal;font-variation-settings:normal;text-indent:0;text-align:start;text-decoration:none;text-decoration-line:none;text-decoration-style:solid;text-decoration-color:#000000;letter-spacing:normal;word-spacing:normal;text-transform:none;writing-mode:lr-tb;direction:ltr;text-orientation:mixed;dominant-baseline:auto;baseline-shift:baseline;text-anchor:start;white-space:normal;shape-padding:0;shape-margin:0;inline-size:0;clip-rule:nonzero;display:inline;overflow:visible;visibility:visible;isolation:auto;mix-blend-mode:normal;color-interpolation:sRGB;color-interpolation-filters:linearRGB;solid-color:#000000;solid-opacity:1;vector-effect:none;fill-opacity:1;fill-rule:nonzero;stroke-width:1;stroke-linecap:butt;stroke-linejoin:miter;stroke-miterlimit:4;stroke-dasharray:none;stroke-dashoffset:0;stroke-opacity:1.0;color-rendering:auto;image-rendering:auto;shape-rendering:auto;text-rendering:auto;enable-background:accumulate;stop-color:#000000;stop-opacity:1;stroke:none;" />
  </g>
  <path
     id="path273"
     d="M 10.755859 4.9785156 A 0.89999998 0.89999998 0 0 0 9.8554688 5.8789062 L 9.8554688 11.244141 A 0.90008998 0.90008998 0 0 0 10.119141 11.880859 L 13.046875 14.806641 A 0.89999998 0.89999998 0 0 0 14.320312 14.806641 A 0.89999998 0.89999998 0 0 0 14.320312 13.535156 L 11.65625 10.871094 L 11.65625 5.8789062 A 0.89999998 0.89999998 0 0 0 10.755859 4.9785156 z "
     style="color:#000000;font-style:normal;font-variant:normal;font-weight:normal;font-stretch:normal;font-size:medium;line-height:normal;font-family:sans-serif;font-variant-ligatures:normal;font-variant-position:normal;font-variant-caps:normal;font-variant-numeric:normal;font-variant-alternates:normal;font-variant-east-asian:normal;font-feature-settings:normal;font-variation-settings:normal;text-indent:0;text-align:start;text-decoration:none;text-decoration-line:none;text-decoration-style:solid;text-decoration-color:#000000;letter-spacing:normal;word-spacing:normal;text-transform:none;writing-mode:lr-tb;direction:ltr;text-orientation:mixed;dominant-baseline:auto;baseline-shift:baseline;text-anchor:start;white-space:normal;shape-padding:0;shape-margin:0;inline-size:0;clip-rule:nonzero;display:inline;overflow:visible;visibility:visible;isolation:auto;mix-blend-mode:normal;color-interpolation:sRGB;color-interpolation-filters:linearRGB;solid-color:#000000;solid-opacity:1;vector-effect:none;fill:#7cca63;fill-opacity:1;fill-rule:nonzero;stroke:none;stroke-width:1.8;stroke-linecap:round;stroke-linejoin:round;stroke-miterlimit:4;stroke-dasharray:none;stroke-dashoffset:0;stroke-opacity:1;color-rendering:auto;image-rendering:auto;shape-rendering:auto;text-rendering:auto;enable-background:accumulate;stop-color:#000000;stop-opacity:1;opacity:1" />
</svg>
