<svg width="30" height="30" viewBox="0 0 30 30" fill="none" xmlns="http://www.w3.org/2000/svg">
<g clip-path="url(#clip0)">
<path d="M29.5718 13.0337L29.5672 13.0177C29.5202 12.8233 29.3761 12.6637 29.1823 12.5994C29.1103 12.5755 27.3917 12.0164 24.9379 12.1886C22.6789 12.3471 19.3397 13.1824 16.2597 16.2624C13.1797 19.3424 12.3445 22.6816 12.1861 24.9404C12.0141 27.3943 12.5732 29.1127 12.5971 29.1847C12.6554 29.3602 12.7931 29.4979 12.9686 29.5562C13.031 29.5769 14.3311 30 16.2753 30C16.5733 30 16.8867 29.99 17.2129 29.9672C19.4717 29.8088 22.8109 28.9735 25.8909 25.8936C31.3406 20.4438 29.9133 14.225 29.5718 13.0337ZM23.5544 13.5494C24.0176 13.46 24.4893 13.3969 24.9696 13.3612C26.1565 13.2731 27.1619 13.376 27.8466 13.4926C27.8173 13.5127 27.7893 13.5353 27.7634 13.5613L23.5544 17.7702V13.5494ZM22.3825 13.8387V18.9421L18.4551 22.8696V15.9437C18.4551 15.9246 18.454 15.9057 18.4522 15.887C19.6676 14.9461 20.9809 14.2619 22.3825 13.8387ZM13.3551 25.0223C13.5651 22.0266 14.8211 19.3582 17.0883 17.091C17.1529 17.0264 17.2179 16.9629 17.2832 16.8999V24.0154C17.2832 24.0238 17.2841 24.0318 17.2844 24.0401L13.4867 27.8378C13.3728 27.1657 13.2735 26.1863 13.3551 25.0223ZM17.1811 28.7945C16.0015 28.8821 15.0011 28.7809 14.3167 28.6651L16.147 26.8348C16.149 26.8348 16.1509 26.8351 16.1529 26.8351H22.9084C21.1735 27.9829 19.2563 28.6404 17.1811 28.7945ZM25.0623 25.0649C24.8543 25.2729 24.6427 25.4723 24.428 25.6633H17.3186L20.7194 22.2625H27.2305C26.6919 23.1971 25.9849 24.1422 25.0623 25.0649ZM27.8247 21.0906H21.8912L28.5919 14.3898C28.617 14.3648 28.6387 14.3379 28.6582 14.3099C28.9013 15.7235 29.0548 18.2935 27.8247 21.0906Z" fill="#7CCA63"/>
<path d="M13.7403 16.2623C10.6603 13.1824 7.3211 12.347 5.06214 12.1886C2.60841 12.0165 0.889688 12.5756 0.817735 12.5994C0.623907 12.6637 0.479767 12.8234 0.432774 13.0178L0.428204 13.0338C0.0867205 14.2251 -1.34056 20.4439 4.10917 25.8936C5.83815 27.6226 7.81844 28.8244 9.9949 29.4655C10.0502 29.4818 10.1059 29.4895 10.1608 29.4895C10.4139 29.4895 10.6474 29.3242 10.7226 29.0691C10.814 28.7587 10.6365 28.4329 10.3261 28.3415C8.33969 27.7562 6.52681 26.6539 4.93786 25.065C3.55289 23.68 2.65248 22.2443 2.0809 20.8697H7.88788L10.716 23.6978C10.8304 23.8122 10.9803 23.8694 11.1303 23.8694C11.2802 23.8694 11.4302 23.8122 11.5446 23.6978C11.7734 23.469 11.7734 23.098 11.5446 22.8691L10.8986 22.2232V15.4145C11.6004 15.8924 12.272 16.4515 12.9116 17.091C13.1404 17.3198 13.5115 17.3198 13.7403 17.091C13.9692 16.8622 13.9691 16.4912 13.7403 16.2623ZM4.98017 13.3577C5.23675 13.3757 5.49081 13.4019 5.74253 13.4352V17.0672L2.20312 13.5278C2.18965 13.5143 2.17552 13.5017 2.16111 13.4898C2.83341 13.3756 3.81433 13.2758 4.98017 13.3577ZM1.66482 19.6979V19.6978C1.00172 17.4641 1.13912 15.4945 1.34027 14.3186C1.35111 14.3315 1.3623 14.3443 1.37443 14.3565L6.71589 19.698H1.66482V19.6979ZM9.72678 21.0514L6.91434 18.239V13.6492C7.89344 13.8796 8.83188 14.2326 9.72678 14.707V21.0514Z" fill="#7CCA63"/>
<path d="M11.0666 26.3438C9.93438 26.0103 8.85942 25.4756 7.87159 24.7548C7.61014 24.564 7.24364 24.6213 7.05286 24.8827C6.86208 25.1441 6.91938 25.5106 7.18077 25.7014C8.27764 26.5019 9.4736 27.0962 10.7354 27.468C10.7907 27.4842 10.8464 27.492 10.9013 27.492C11.1544 27.492 11.3879 27.3266 11.4631 27.0715C11.5545 26.761 11.3771 26.4352 11.0666 26.3438Z" fill="#7CCA63"/>
<path d="M6.46244 23.5442L6.46039 23.5421C6.23158 23.3134 5.86168 23.3144 5.63275 23.5432C5.40394 23.772 5.405 24.144 5.63381 24.3728C5.74824 24.4873 5.89818 24.5445 6.04812 24.5445C6.19806 24.5445 6.34806 24.4873 6.46244 24.3728C6.69125 24.144 6.69125 23.773 6.46244 23.5442Z" fill="#7CCA63"/>
<path d="M7.50879 7.44128H4.33612V4.89251H6.52166C6.84528 4.89251 7.1076 4.63019 7.1076 4.30657C7.1076 3.98296 6.84528 3.72064 6.52166 3.72064H4.33612V1.17187H7.50873C7.83235 1.17187 8.09467 0.909549 8.09467 0.585936C8.09467 0.262324 7.83235 0 7.50873 0H3.75024C3.42663 0 3.16431 0.262324 3.16431 0.585936V8.02715C3.16431 8.35077 3.42663 8.61309 3.75024 8.61309H7.50879C7.8324 8.61309 8.09473 8.35077 8.09473 8.02715C8.09473 7.70354 7.8324 7.44128 7.50879 7.44128Z" fill="#7CCA63"/>
<path d="M22.4998 0C20.1251 0 18.1932 1.93189 18.1932 4.30652C18.1932 6.68114 20.1251 8.61303 22.4998 8.61303C24.8744 8.61303 26.8063 6.68114 26.8063 4.30652C26.8063 1.93189 24.8744 0 22.4998 0ZM22.4998 7.44122C20.7713 7.44122 19.3651 6.03503 19.3651 4.30652C19.3651 2.578 20.7712 1.17181 22.4998 1.17181C24.2283 1.17181 25.6345 2.578 25.6345 4.30652C25.6345 6.03503 24.2282 7.44122 22.4998 7.44122Z" fill="#7CCA63"/>
<path d="M15.9103 6.52302C14.6881 7.74522 12.6993 7.74522 11.4772 6.52302C10.255 5.30087 10.255 3.31214 11.4772 2.08994C12.6993 0.867733 14.6881 0.867733 15.9103 2.08994C16.1391 2.31875 16.5101 2.31875 16.739 2.08994C16.9678 1.86113 16.9678 1.49011 16.739 1.26125C15.0599 -0.417812 12.3277 -0.417812 10.6486 1.26125C8.9695 2.94037 8.9695 5.67253 10.6486 7.35159C11.4882 8.19118 12.5909 8.61094 13.6938 8.61094C14.7967 8.61094 15.8994 8.19112 16.739 7.35165C16.9678 7.12284 16.9678 6.75182 16.739 6.52296C16.5102 6.29421 16.1392 6.29421 15.9103 6.52302Z" fill="#7CCA63"/>
<path d="M15.004 9.98193C14.6804 9.98193 14.4181 10.2443 14.4181 10.5679V12.2248C14.4181 12.5485 14.6804 12.8108 15.004 12.8108C15.3276 12.8108 15.59 12.5485 15.59 12.2248V10.5679C15.5899 10.2443 15.3276 9.98193 15.004 9.98193Z" fill="#7CCA63"/>
<path d="M18.4233 11.5959C18.1944 11.3671 17.8235 11.3671 17.5947 11.5959L16.3999 12.7907C16.1711 13.0195 16.171 13.3905 16.3999 13.6193C16.5143 13.7337 16.6643 13.7909 16.8142 13.7909C16.9642 13.7909 17.1141 13.7337 17.2285 13.6193L18.4232 12.4246C18.6521 12.1957 18.6522 11.8247 18.4233 11.5959Z" fill="#7CCA63"/>
<path d="M13.602 12.7734L12.4053 11.5766C12.1764 11.3478 11.8055 11.3479 11.5767 11.5766C11.3478 11.8054 11.3478 12.1765 11.5767 12.4053L12.7734 13.602C12.8878 13.7165 13.0378 13.7737 13.1877 13.7737C13.3376 13.7737 13.4876 13.7164 13.602 13.602C13.8308 13.3732 13.8309 13.0022 13.602 12.7734Z" fill="#7CCA63"/>
</g>
<defs>
<clipPath id="clip0">
<rect width="30" height="30" fill="white"/>
</clipPath>
</defs>
</svg>
