<?xml version="1.0" encoding="UTF-8" standalone="no"?>
<svg
   xmlns:dc="http://purl.org/dc/elements/1.1/"
   xmlns:cc="http://creativecommons.org/ns#"
   xmlns:rdf="http://www.w3.org/1999/02/22-rdf-syntax-ns#"
   xmlns:svg="http://www.w3.org/2000/svg"
   xmlns="http://www.w3.org/2000/svg"
   xmlns:sodipodi="http://sodipodi.sourceforge.net/DTD/sodipodi-0.dtd"
   xmlns:inkscape="http://www.inkscape.org/namespaces/inkscape"
   inkscape:version="1.0 (4035a4fb49, 2020-05-01)"
   sodipodi:docname="heart.svg"
   id="svg287"
   version="1.1"
   fill="none"
   viewBox="0 0 28 25"
   height="25"
   width="28">
  <metadata
     id="metadata293">
    <rdf:RDF>
      <cc:Work
         rdf:about="">
        <dc:format>image/svg+xml</dc:format>
        <dc:type
           rdf:resource="http://purl.org/dc/dcmitype/StillImage" />
      </cc:Work>
    </rdf:RDF>
  </metadata>
  <defs
     id="defs291" />
  <sodipodi:namedview
     inkscape:current-layer="svg287"
     inkscape:window-maximized="0"
     inkscape:window-y="0"
     inkscape:window-x="0"
     inkscape:cy="3.7270855"
     inkscape:cx="-23.270793"
     inkscape:zoom="2.125"
     showgrid="false"
     id="namedview289"
     inkscape:window-height="480"
     inkscape:window-width="708"
     inkscape:pageshadow="2"
     inkscape:pageopacity="0"
     guidetolerance="10"
     gridtolerance="10"
     objecttolerance="10"
     borderopacity="1"
     bordercolor="#666666"
     pagecolor="#ffffff" />
  <path
     id="path297"
     d="M 7.2167969 1.0390625 C 4.6192255 1.3445512 2.2245804 2.8770431 0.98632812 5.2480469 C -0.25192416 7.6190506 -0.29027815 10.793987 1.5859375 14.128906 C 3.4621532 17.463825 7.1965483 20.995236 13.544922 24.419922 L 13.972656 24.650391 L 14.398438 24.419922 C 20.747033 20.995239 24.481085 17.463822 26.357422 14.128906 C 28.233759 10.793991 28.195286 7.6190631 26.957031 5.2480469 C 24.610446 0.75479418 18.1457 -0.65674077 13.972656 3.5175781 C 12.001795 1.5456439 9.5419829 0.76560786 7.2167969 1.0390625 z M 7.3691406 2.7714844 C 9.3808239 2.5141843 11.57935 3.2330242 13.273438 5.3242188 L 13.972656 6.1875 L 14.671875 5.3242188 C 18.060517 1.1417795 23.462863 2.444888 25.361328 6.0800781 C 26.310561 7.8976732 26.428466 10.332294 24.789062 13.246094 C 23.192169 16.084338 19.829039 19.344143 13.972656 22.578125 C 8.1155181 19.343862 4.7512239 16.084585 3.1542969 13.246094 C 1.5150047 10.332299 1.6327898 7.8976844 2.5820312 6.0800781 C 3.5312727 4.2624719 5.3574573 3.0287845 7.3691406 2.7714844 z "
     style="color:#000000;font-style:normal;font-variant:normal;font-weight:normal;font-stretch:normal;font-size:medium;line-height:normal;font-family:sans-serif;font-variant-ligatures:normal;font-variant-position:normal;font-variant-caps:normal;font-variant-numeric:normal;font-variant-alternates:normal;font-variant-east-asian:normal;font-feature-settings:normal;font-variation-settings:normal;text-indent:0;text-align:start;text-decoration:none;text-decoration-line:none;text-decoration-style:solid;text-decoration-color:#000000;letter-spacing:normal;word-spacing:normal;text-transform:none;writing-mode:lr-tb;direction:ltr;text-orientation:mixed;dominant-baseline:auto;baseline-shift:baseline;text-anchor:start;white-space:normal;shape-padding:0;shape-margin:0;inline-size:0;clip-rule:nonzero;display:inline;overflow:visible;visibility:visible;isolation:auto;mix-blend-mode:normal;color-interpolation:sRGB;color-interpolation-filters:linearRGB;solid-color:#000000;solid-opacity:1;vector-effect:none;fill:#7cca63;fill-opacity:1;fill-rule:nonzero;stroke:none;stroke-width:1.8;stroke-linecap:butt;stroke-linejoin:miter;stroke-miterlimit:4;stroke-dasharray:none;stroke-dashoffset:0;stroke-opacity:1;color-rendering:auto;image-rendering:auto;shape-rendering:auto;text-rendering:auto;enable-background:accumulate;stop-color:#000000;stop-opacity:1;opacity:1" />
</svg>
