<?xml version="1.0" encoding="UTF-8" standalone="no"?>
<svg
   xmlns:dc="http://purl.org/dc/elements/1.1/"
   xmlns:cc="http://creativecommons.org/ns#"
   xmlns:rdf="http://www.w3.org/1999/02/22-rdf-syntax-ns#"
   xmlns:svg="http://www.w3.org/2000/svg"
   xmlns="http://www.w3.org/2000/svg"
   xmlns:sodipodi="http://sodipodi.sourceforge.net/DTD/sodipodi-0.dtd"
   xmlns:inkscape="http://www.inkscape.org/namespaces/inkscape"
   inkscape:version="1.0 (4035a4fb49, 2020-05-01)"
   sodipodi:docname="mail.svg"
   id="svg315"
   version="1.1"
   fill="none"
   viewBox="0 0 20 18"
   height="18"
   width="20">
  <metadata
     id="metadata321">
    <rdf:RDF>
      <cc:Work
         rdf:about="">
        <dc:format>image/svg+xml</dc:format>
        <dc:type
           rdf:resource="http://purl.org/dc/dcmitype/StillImage" />
      </cc:Work>
    </rdf:RDF>
  </metadata>
  <defs
     id="defs319" />
  <sodipodi:namedview
     inkscape:current-layer="svg315"
     inkscape:window-maximized="0"
     inkscape:window-y="0"
     inkscape:window-x="0"
     inkscape:cy="6.8219284"
     inkscape:cx="1.7693679"
     inkscape:zoom="8.3477884"
     showgrid="false"
     id="namedview317"
     inkscape:window-height="480"
     inkscape:window-width="708"
     inkscape:pageshadow="2"
     inkscape:pageopacity="0"
     guidetolerance="10"
     gridtolerance="10"
     objecttolerance="10"
     borderopacity="1"
     bordercolor="#666666"
     pagecolor="#ffffff" />
  <g
     style="opacity:1"
     id="g323">
    <path
       id="path325"
       d="m 18.5752,7.64688 c -0.1246,0.88929 -0.4289,1.73389 -0.8823,2.50892 0.0305,0.1804 0.0461,0.3627 0.0461,0.5456 0,0.6604 -0.1913,1.2925 -0.546,1.8672 -0.1745,0.2826 -0.2222,0.6094 -0.2413,0.8259 -0.0218,0.2469 -0.0175,0.5156 -0.0019,0.7734 0.0189,0.3127 0.0566,0.6434 0.1003,0.9549 -0.3572,-0.1038 -0.7449,-0.2076 -1.112,-0.2883 -0.285,-0.0627 -0.5764,-0.1156 -0.8416,-0.1412 -0.2319,-0.0223 -0.5678,-0.0384 -0.8721,0.06 -0.6747,0.2181 -1.4173,0.3398 -2.2,0.3398 -0.9152,0 -1.7565,-0.1596 -2.49604,-0.4374 -0.19545,0.0096 -0.39246,0.0145 -0.59087,0.0145 -1.07394,0 -2.10712,-0.1428 -3.07274,-0.4064 1.39307,1.625 3.70086,2.6293 6.15965,2.6293 0.9558,0 1.8733,-0.1466 2.7191,-0.416 0.0012,0 0.0029,-10e-5 0.0049,-10e-5 0.0191,-5e-4 0.0735,-0.0018 0.1754,0.008 0.1647,0.0159 0.3783,0.0526 0.6279,0.1075 0.4968,0.1092 1.0615,0.2734 1.5213,0.4176 1.0237,0.3209 2.0201,-0.5698 1.8418,-1.6126 -0.0723,-0.4226 -0.1428,-0.9161 -0.1683,-1.3381 -0.0128,-0.2121 -0.0127,-0.3832 -0.0018,-0.5068 0.0039,-0.0438 0.0084,-0.073 0.0116,-0.0904 0.4968,-0.8239 0.7827,-1.762 0.7827,-2.7608 0,-1.13449 -0.3544,-2.16934 -0.9638,-3.05452 z"
       style="color:#000000;font-style:normal;font-variant:normal;font-weight:normal;font-stretch:normal;font-size:medium;line-height:normal;font-family:sans-serif;font-variant-ligatures:normal;font-variant-position:normal;font-variant-caps:normal;font-variant-numeric:normal;font-variant-alternates:normal;font-variant-east-asian:normal;font-feature-settings:normal;font-variation-settings:normal;text-indent:0;text-align:start;text-decoration:none;text-decoration-line:none;text-decoration-style:solid;text-decoration-color:#000000;letter-spacing:normal;word-spacing:normal;text-transform:none;writing-mode:lr-tb;direction:ltr;text-orientation:mixed;dominant-baseline:auto;baseline-shift:baseline;text-anchor:start;white-space:normal;shape-padding:0;shape-margin:0;inline-size:0;clip-rule:evenodd;display:inline;overflow:visible;visibility:visible;isolation:auto;mix-blend-mode:normal;color-interpolation:sRGB;color-interpolation-filters:linearRGB;solid-color:#000000;solid-opacity:1;vector-effect:none;fill:#ffffff;fill-opacity:1;fill-rule:evenodd;stroke-width:1;stroke-linecap:butt;stroke-linejoin:miter;stroke-miterlimit:4;stroke-dasharray:none;stroke-dashoffset:0;stroke-opacity:1.0;color-rendering:auto;image-rendering:auto;shape-rendering:auto;text-rendering:auto;enable-background:accumulate;stop-color:#000000;stop-opacity:1;stroke:none;" />
    <path
       id="path327"
       d="M 18.257812 6.3046875 L 18.080078 7.578125 C 17.964964 8.3997142 17.684409 9.181761 17.261719 9.9042969 L 17.169922 10.060547 L 17.199219 10.238281 C 17.225161 10.39172 17.238281 10.546703 17.238281 10.701172 C 17.238281 11.265014 17.078417 11.803006 16.767578 12.306641 C 16.523945 12.701201 16.474758 13.104393 16.453125 13.349609 C 16.428023 13.633907 16.434641 13.924087 16.451172 14.197266 C 16.456446 14.284534 16.470825 14.370822 16.478516 14.458984 C 16.331919 14.421931 16.190012 14.377598 16.044922 14.345703 C 15.74771 14.280317 15.440436 14.223876 15.144531 14.195312 C 14.889663 14.170804 14.492297 14.140889 14.070312 14.277344 C 13.445984 14.479161 12.754308 14.59375 12.023438 14.59375 C 11.166367 14.59375 10.386777 14.443573 9.7050781 14.1875 L 9.6074219 14.150391 L 9.5039062 14.15625 C 9.3165732 14.165451 9.1276779 14.169922 8.9375 14.169922 C 7.9078828 14.169922 6.9185595 14.03307 5.9960938 13.78125 L 4.4257812 13.351562 L 5.484375 14.589844 C 6.9887831 16.344718 9.4284965 17.392578 12.023438 17.392578 C 12.977598 17.392578 13.888451 17.233775 14.744141 16.976562 C 14.791461 16.962338 14.847607 16.968071 14.894531 16.953125 L 14.748047 16.976562 L 14.755859 16.976562 L 14.761719 16.976562 C 14.778655 16.976119 14.794174 16.974649 14.875 16.982422 C 15.007607 16.995224 15.206551 17.027992 15.443359 17.080078 L 15.445312 17.080078 C 15.917061 17.183772 16.472151 17.344676 16.923828 17.486328 C 18.287879 17.913918 19.646629 16.70695 19.408203 15.3125 C 19.337703 14.900422 19.269663 14.41934 19.246094 14.029297 C 19.234277 13.833493 19.234811 13.679347 19.242188 13.595703 C 19.244682 13.568777 19.247775 13.554211 19.248047 13.552734 L 19.183594 13.720703 C 19.723256 12.82572 20.039063 11.795386 20.039062 10.701172 C 20.039062 9.4625529 19.647599 8.3238055 18.986328 7.3632812 L 18.257812 6.3046875 z M 18.558594 9.1757812 C 18.738129 9.6788978 19.039062 10.134194 19.039062 10.701172 C 19.039062 11.604557 18.782063 12.450308 18.328125 13.203125 L 18.28125 13.28125 L 18.263672 13.371094 C 18.257556 13.404351 18.251266 13.449723 18.246094 13.507812 C 18.23167 13.671369 18.234263 13.861448 18.248047 14.089844 C 18.275478 14.543801 18.347775 15.0493 18.421875 15.482422 C 18.540049 16.173572 17.906005 16.747413 17.222656 16.533203 C 16.754733 16.386456 16.180055 16.218222 15.658203 16.103516 C 15.395812 16.045802 15.169449 16.007279 14.972656 15.988281 L 14.970703 15.986328 C 14.854832 15.975184 14.775667 15.976017 14.748047 15.976562 L 14.744141 15.976562 L 14.666016 15.976562 L 14.591797 16 C 13.795649 16.253585 12.928111 16.392578 12.023438 16.392578 C 10.398362 16.392578 8.9714322 15.805983 7.7460938 15.011719 C 8.1490846 15.051682 8.5217845 15.169922 8.9375 15.169922 C 9.1369307 15.169922 9.334678 15.163617 9.53125 15.154297 C 10.287908 15.417251 11.115541 15.59375 12.023438 15.59375 C 12.857967 15.59375 13.653834 15.462899 14.378906 15.228516 C 14.565521 15.168171 14.839896 15.171315 15.048828 15.191406 C 15.283323 15.214042 15.55729 15.262252 15.830078 15.322266 C 16.181467 15.399512 16.56028 15.501844 16.910156 15.603516 L 17.652344 15.818359 L 17.544922 15.052734 C 17.502489 14.750269 17.466984 14.432594 17.449219 14.138672 C 17.434549 13.896251 17.430721 13.647003 17.449219 13.4375 C 17.465785 13.249716 17.513774 13.002671 17.619141 12.832031 C 18.017701 12.186266 18.238281 11.45813 18.238281 10.701172 C 18.238281 10.534486 18.21921 10.369534 18.197266 10.205078 C 18.373274 9.8840635 18.431237 9.517809 18.558594 9.1757812 z "
       style="color:#000000;font-style:normal;font-variant:normal;font-weight:normal;font-stretch:normal;font-size:medium;line-height:normal;font-family:sans-serif;font-variant-ligatures:normal;font-variant-position:normal;font-variant-caps:normal;font-variant-numeric:normal;font-variant-alternates:normal;font-variant-east-asian:normal;font-feature-settings:normal;font-variation-settings:normal;text-indent:0;text-align:start;text-decoration:none;text-decoration-line:none;text-decoration-style:solid;text-decoration-color:#000000;letter-spacing:normal;word-spacing:normal;text-transform:none;writing-mode:lr-tb;direction:ltr;text-orientation:mixed;dominant-baseline:auto;baseline-shift:baseline;text-anchor:start;white-space:normal;shape-padding:0;shape-margin:0;inline-size:0;clip-rule:evenodd;display:inline;overflow:visible;visibility:visible;isolation:auto;mix-blend-mode:normal;color-interpolation:sRGB;color-interpolation-filters:linearRGB;solid-color:#000000;solid-opacity:1;vector-effect:none;fill-opacity:1;fill-rule:evenodd;stroke-width:1;stroke-linecap:butt;stroke-linejoin:miter;stroke-miterlimit:4;stroke-dasharray:none;stroke-dashoffset:0;stroke-opacity:1.0;color-rendering:auto;image-rendering:auto;shape-rendering:auto;text-rendering:auto;enable-background:accumulate;stop-color:#000000;stop-opacity:1;stroke:none;" />
  </g>
  <path
     id="path331"
     d="M 8.9375 0.099609375 C 6.6814106 0.099609375 4.6219208 0.79325514 3.0898438 1.9648438 C 1.5577667 3.1364324 0.54101562 4.8313647 0.54101562 6.7324219 C 0.54101562 7.670707 0.78864875 8.5697028 1.2246094 9.3691406 C 1.0966707 9.1345324 1.1838972 9.2295364 1.1699219 9.4003906 C 1.1559466 9.5712448 1.1124283 9.8323049 1.046875 10.123047 C 0.9157685 10.704531 0.7036793 11.410298 0.51953125 11.976562 C 0.16072575 13.079948 1.3109609 14.173474 2.3945312 13.755859 C 3.0018865 13.521853 3.7842629 13.238695 4.4550781 13.046875 C 4.7904857 12.950965 5.0992593 12.879359 5.3222656 12.845703 C 5.545272 12.812047 5.7051625 12.859981 5.5566406 12.808594 C 6.5949772 13.167847 7.7382359 13.365234 8.9375 13.365234 C 11.193571 13.365234 13.253063 12.673539 14.785156 11.501953 C 16.317249 10.330368 17.333984 8.6334875 17.333984 6.7324219 C 17.333984 4.8313562 16.317249 3.1364293 14.785156 1.9648438 C 13.253063 0.7932582 11.193571 0.099609375 8.9375 0.099609375 z M 8.9375 1.9003906 C 10.821619 1.9003906 12.510252 2.4913068 13.691406 3.3945312 C 14.872561 4.2977557 15.533203 5.4674275 15.533203 6.7324219 C 15.533203 7.9974162 14.872561 9.1690412 13.691406 10.072266 C 12.510252 10.97549 10.821619 11.564453 8.9375 11.564453 C 7.9359441 11.564453 6.9889147 11.399569 6.1445312 11.107422 C 5.7042394 10.955085 5.4008765 11.014159 5.0546875 11.066406 C 4.7084985 11.118653 4.3421311 11.207404 3.9609375 11.316406 C 3.4320155 11.467652 2.9278956 11.66027 2.4257812 11.84375 C 2.5592528 11.403123 2.7019205 10.966661 2.8027344 10.519531 C 2.8793761 10.17961 2.9375559 9.856603 2.9628906 9.546875 C 2.9882253 9.237147 3.0492312 8.9542926 2.8046875 8.5058594 C 2.5003681 7.9478172 2.3417969 7.3567767 2.3417969 6.7324219 C 2.3417969 5.467419 3.0024583 4.2977526 4.1835938 3.3945312 C 5.3647292 2.4913099 7.0533594 1.9003906 8.9375 1.9003906 z "
     style="color:#000000;font-style:normal;font-variant:normal;font-weight:normal;font-stretch:normal;font-size:medium;line-height:normal;font-family:sans-serif;font-variant-ligatures:normal;font-variant-position:normal;font-variant-caps:normal;font-variant-numeric:normal;font-variant-alternates:normal;font-variant-east-asian:normal;font-feature-settings:normal;font-variation-settings:normal;text-indent:0;text-align:start;text-decoration:none;text-decoration-line:none;text-decoration-style:solid;text-decoration-color:#000000;letter-spacing:normal;word-spacing:normal;text-transform:none;writing-mode:lr-tb;direction:ltr;text-orientation:mixed;dominant-baseline:auto;baseline-shift:baseline;text-anchor:start;white-space:normal;shape-padding:0;shape-margin:0;inline-size:0;clip-rule:nonzero;display:inline;overflow:visible;visibility:visible;isolation:auto;mix-blend-mode:normal;color-interpolation:sRGB;color-interpolation-filters:linearRGB;solid-color:#000000;solid-opacity:1;vector-effect:none;fill:#ffffff;fill-opacity:1;fill-rule:nonzero;stroke:none;stroke-width:1.8;stroke-linecap:butt;stroke-linejoin:miter;stroke-miterlimit:4;stroke-dasharray:none;stroke-dashoffset:0;stroke-opacity:1;color-rendering:auto;image-rendering:auto;shape-rendering:auto;text-rendering:auto;enable-background:accumulate;stop-color:#000000;stop-opacity:1;opacity:1" />
</svg>
