<svg width="22" height="22" viewBox="0 0 22 22" fill="none" xmlns="http://www.w3.org/2000/svg">
<path fill-rule="evenodd" clip-rule="evenodd" d="M16.2038 2.54075C15.729 1.79548 14.7399 1.57621 13.9947 2.051C13.5565 2.33016 12.8447 3.05821 12.3327 3.87477C12.0812 4.27585 11.9121 4.6452 11.8391 4.9402C11.8034 5.08486 11.7966 5.18845 11.8014 5.25551C11.8037 5.28763 11.8084 5.30805 11.8119 5.31938C11.8151 5.33004 11.8177 5.3341 11.8181 5.33469L11.8181 5.33471L11.8181 5.33472C11.8185 5.33531 11.8211 5.33937 11.8294 5.34685C11.8382 5.35479 11.8547 5.3677 11.8828 5.38336C11.9416 5.41606 12.0383 5.45368 12.1846 5.48238C12.4827 5.54092 12.8889 5.5438 13.3587 5.48535C14.3152 5.36636 15.2758 5.02901 15.714 4.74985C16.4593 4.27507 16.6785 3.28602 16.2038 2.54075ZM13.0275 0.532896C14.6112 -0.476028 16.7129 -0.010085 17.7219 1.57361C18.7308 3.1573 18.2648 5.25903 16.6811 6.26796C16.5352 6.36096 16.3685 6.45142 16.1862 6.53773H20.9C21.3971 6.53773 21.8 6.94068 21.8 7.43773V11.4377C21.8 11.9348 21.3971 12.3377 20.9 12.3377H20.8V19.4377C20.8 20.4871 19.9493 21.3377 18.9 21.3377H10.9H2.9C1.85066 21.3377 1 20.4871 1 19.4377V12.3377H0.9C0.402944 12.3377 0 11.9348 0 11.4377V7.43773C0 6.94068 0.402944 6.53773 0.9 6.53773H5.61382C5.43149 6.45142 5.26484 6.36096 5.11885 6.26796C3.53516 5.25903 3.06921 3.1573 4.07814 1.57361C5.08706 -0.010085 7.1888 -0.476028 8.77249 0.532896C9.46285 0.972702 10.2968 1.85537 10.9 2.77467C11.5032 1.85537 12.3372 0.972702 13.0275 0.532896ZM2.8 12.3377V19.4377C2.8 19.493 2.84477 19.5377 2.9 19.5377H10V12.3377H2.8ZM10 10.5377H1.9H1.8V8.33773H10V10.5377ZM11.8 12.3377V19.5377H18.9C18.9552 19.5377 19 19.493 19 19.4377V12.3377H11.8ZM20 10.5377H19.9H11.8V8.33773H20V10.5377ZM7.80535 2.051C7.06008 1.57621 6.07103 1.79548 5.59624 2.54075C5.12146 3.28602 5.34072 4.27507 6.08599 4.74985C6.52418 5.02901 7.4848 5.36636 8.44127 5.48535C8.91106 5.5438 9.31725 5.54092 9.61545 5.48238C9.76168 5.45368 9.85844 5.41606 9.91718 5.38336C9.94532 5.3677 9.96183 5.35479 9.97063 5.34685C9.97891 5.33937 9.9815 5.33531 9.98187 5.33472L9.98188 5.33471L9.98189 5.33469C9.98227 5.3341 9.98485 5.33004 9.98813 5.31938C9.99161 5.30805 9.99633 5.28763 9.99863 5.25551C10.0034 5.18845 9.99664 5.08486 9.96086 4.9402C9.88789 4.6452 9.71883 4.27585 9.46732 3.87477C8.95526 3.05821 8.24354 2.33016 7.80535 2.051Z" fill="#AA0F59"/>
</svg>
