<?xml version="1.0" encoding="UTF-8" standalone="no"?>
<svg
   xmlns:dc="http://purl.org/dc/elements/1.1/"
   xmlns:cc="http://creativecommons.org/ns#"
   xmlns:rdf="http://www.w3.org/1999/02/22-rdf-syntax-ns#"
   xmlns:svg="http://www.w3.org/2000/svg"
   xmlns="http://www.w3.org/2000/svg"
   xmlns:sodipodi="http://sodipodi.sourceforge.net/DTD/sodipodi-0.dtd"
   xmlns:inkscape="http://www.inkscape.org/namespaces/inkscape"
   inkscape:version="1.0 (4035a4fb49, 2020-05-01)"
   sodipodi:docname="phone.svg"
   id="svg411"
   version="1.1"
   fill="none"
   viewBox="0 0 17 17"
   height="17"
   width="17">
  <metadata
     id="metadata417">
    <rdf:RDF>
      <cc:Work
         rdf:about="">
        <dc:format>image/svg+xml</dc:format>
        <dc:type
           rdf:resource="http://purl.org/dc/dcmitype/StillImage" />
      </cc:Work>
    </rdf:RDF>
  </metadata>
  <defs
     id="defs415" />
  <sodipodi:namedview
     inkscape:current-layer="svg411"
     inkscape:window-maximized="0"
     inkscape:window-y="0"
     inkscape:window-x="0"
     inkscape:cy="-6.0883582"
     inkscape:cx="-19.584878"
     inkscape:zoom="3.125"
     showgrid="false"
     id="namedview413"
     inkscape:window-height="480"
     inkscape:window-width="708"
     inkscape:pageshadow="2"
     inkscape:pageopacity="0"
     guidetolerance="10"
     gridtolerance="10"
     objecttolerance="10"
     borderopacity="1"
     bordercolor="#666666"
     pagecolor="#ffffff" />
  <g
     style="opacity:1"
     id="g419">
    <path
       id="path421"
       d="m 10.6478,12.4493 -0.4837,0.7255 C 10.0675,13.3197 9.93981,13.4432 9.77153,13.4877 9.2203,13.6333 7.75689,13.6991 5.52889,11.4711 3.30089,9.24312 3.36665,7.77969 3.5123,7.22847 3.55676,7.06019 3.68034,6.93249 3.82517,6.83594 L 4.55074,6.35223 C 5.09095,5.99209 5.23692,5.26222 4.87678,4.72201 L 3.50642,2.66646 C 3.19207,2.19494 2.58608,2.0148 2.06521,2.23803 L 1.44703,2.50296 C 0.977423,2.70422 0.594355,3.06542 0.365867,3.52239 0.174973,3.90418 0.0270168,4.30623 0.00697012,4.73261 -0.0562048,6.0763 0.238433,9.38676 3.92585,13.0742 c 3.68741,3.6874 6.99785,3.982 8.34155,3.9188 0.4264,-0.02 0.8284,-0.168 1.2102,-0.3589 0.457,-0.2285 0.8182,-0.6115 1.0194,-1.0811 l 0.265,-0.6182 c 0.2232,-0.5209 0.0431,-1.1269 -0.4285,-1.4412 L 12.278,12.1232 c -0.5402,-0.3601 -1.2701,-0.2142 -1.6302,0.3261 z"
       style="color:#000000;font-style:normal;font-variant:normal;font-weight:normal;font-stretch:normal;font-size:medium;line-height:normal;font-family:sans-serif;font-variant-ligatures:normal;font-variant-position:normal;font-variant-caps:normal;font-variant-numeric:normal;font-variant-alternates:normal;font-variant-east-asian:normal;font-feature-settings:normal;font-variation-settings:normal;text-indent:0;text-align:start;text-decoration:none;text-decoration-line:none;text-decoration-style:solid;text-decoration-color:#000000;letter-spacing:normal;word-spacing:normal;text-transform:none;writing-mode:lr-tb;direction:ltr;text-orientation:mixed;dominant-baseline:auto;baseline-shift:baseline;text-anchor:start;white-space:normal;shape-padding:0;shape-margin:0;inline-size:0;clip-rule:nonzero;display:inline;overflow:visible;visibility:visible;isolation:auto;mix-blend-mode:normal;color-interpolation:sRGB;color-interpolation-filters:linearRGB;solid-color:#000000;solid-opacity:1;vector-effect:none;fill:#ffffff;fill-opacity:1;fill-rule:nonzero;stroke-width:1;stroke-linecap:butt;stroke-linejoin:miter;stroke-miterlimit:4;stroke-dasharray:none;stroke-dashoffset:0;stroke-opacity:1.0;color-rendering:auto;image-rendering:auto;shape-rendering:auto;text-rendering:auto;enable-background:accumulate;stop-color:#000000;stop-opacity:1;stroke:none;" />
    <path
       id="path423"
       d="M 3.0058594 1.7148438 C 2.6405246 1.6062408 2.2388645 1.6208438 1.8691406 1.7792969 L 1.25 2.0429688 C 0.67179429 2.290771 0.19929515 2.7361827 -0.08203125 3.2988281 C -0.2895016 3.713771 -0.46741302 4.1820472 -0.4921875 4.7089844 C -0.56059688 6.164008 -0.21153714 9.643908 3.5722656 13.427734 C 7.3560632 17.211522 10.835978 17.560624 12.291016 17.492188 C 12.818041 17.467468 13.286262 17.289486 13.701172 17.082031 C 14.263807 16.800714 14.709277 16.328256 14.957031 15.75 L 15.220703 15.130859 C 15.537546 14.391417 15.280849 13.52433 14.611328 13.078125 L 12.554688 11.707031 C 11.789665 11.197064 10.742408 11.406683 10.232422 12.171875 L 9.7480469 12.896484 C 9.6915159 12.981281 9.6522025 13.001878 9.6445312 13.003906 C 9.2685943 13.103205 8.0299242 13.264299 5.8828125 11.117188 C 3.7357008 8.9700951 3.8967861 7.7313038 3.9960938 7.3554688 C 3.9980621 7.3480186 4.0168133 7.3084506 4.1015625 7.2519531 L 4.828125 6.7675781 C 5.5931702 6.257548 5.8029973 5.2103553 5.2929688 4.4453125 L 3.921875 2.3886719 C 3.6987448 2.0539801 3.3711942 1.8234467 3.0058594 1.7148438 z M 2.2617188 2.6972656 C 2.5640109 2.5677118 2.9074042 2.669703 3.0898438 2.9433594 L 4.4609375 5 C 4.6711889 5.3153772 4.5888123 5.725297 4.2734375 5.9355469 L 3.546875 6.4199219 C 3.3419642 6.5565244 3.1162485 6.7724526 3.0292969 7.1015625 C 2.8373045 7.8281674 2.866893 9.5153512 5.1757812 11.824219 C 7.4846695 14.133107 9.1719145 14.162604 9.8984375 13.970703 C 10.227326 13.883732 10.443409 13.658129 10.580078 13.453125 L 11.064453 12.726562 C 11.274667 12.411155 11.684622 12.32883 12 12.539062 L 14.056641 13.910156 C 14.33032 14.092551 14.432291 14.435924 14.302734 14.738281 L 14.037109 15.355469 C 13.882463 15.716412 13.605271 16.011818 13.253906 16.1875 C 12.905216 16.361845 12.569916 16.47886 12.244141 16.494141 C 11.011779 16.552104 7.8703193 16.311716 4.2792969 12.720703 C 0.68826564 9.1296495 0.44791891 5.9882158 0.50585938 4.7558594 C 0.52117826 4.4300365 0.63818235 4.0947309 0.8125 3.7460938 C 0.9881496 3.3947992 1.283523 3.1176084 1.6445312 2.9628906 L 2.2617188 2.6972656 z "
       style="color:#000000;font-style:normal;font-variant:normal;font-weight:normal;font-stretch:normal;font-size:medium;line-height:normal;font-family:sans-serif;font-variant-ligatures:normal;font-variant-position:normal;font-variant-caps:normal;font-variant-numeric:normal;font-variant-alternates:normal;font-variant-east-asian:normal;font-feature-settings:normal;font-variation-settings:normal;text-indent:0;text-align:start;text-decoration:none;text-decoration-line:none;text-decoration-style:solid;text-decoration-color:#000000;letter-spacing:normal;word-spacing:normal;text-transform:none;writing-mode:lr-tb;direction:ltr;text-orientation:mixed;dominant-baseline:auto;baseline-shift:baseline;text-anchor:start;white-space:normal;shape-padding:0;shape-margin:0;inline-size:0;clip-rule:nonzero;display:inline;overflow:visible;visibility:visible;isolation:auto;mix-blend-mode:normal;color-interpolation:sRGB;color-interpolation-filters:linearRGB;solid-color:#000000;solid-opacity:1;vector-effect:none;fill-opacity:1;fill-rule:nonzero;stroke-width:1;stroke-linecap:butt;stroke-linejoin:miter;stroke-miterlimit:4;stroke-dasharray:none;stroke-dashoffset:0;stroke-opacity:1.0;color-rendering:auto;image-rendering:auto;shape-rendering:auto;text-rendering:auto;enable-background:accumulate;stop-color:#000000;stop-opacity:1;stroke:none;" />
  </g>
  <path
     id="path427"
     d="M 8 0.099609375 A 0.89999998 0.89999998 0 0 0 7.0996094 1 A 0.89999998 0.89999998 0 0 0 8 1.9003906 C 11.931907 1.9003906 15.099609 5.0681129 15.099609 9 A 0.89999998 0.89999998 0 0 0 16 9.9003906 A 0.89999998 0.89999998 0 0 0 16.900391 9 C 16.900391 4.0953271 12.904693 0.099609375 8 0.099609375 z "
     style="color:#000000;font-style:normal;font-variant:normal;font-weight:normal;font-stretch:normal;font-size:medium;line-height:normal;font-family:sans-serif;font-variant-ligatures:normal;font-variant-position:normal;font-variant-caps:normal;font-variant-numeric:normal;font-variant-alternates:normal;font-variant-east-asian:normal;font-feature-settings:normal;font-variation-settings:normal;text-indent:0;text-align:start;text-decoration:none;text-decoration-line:none;text-decoration-style:solid;text-decoration-color:#000000;letter-spacing:normal;word-spacing:normal;text-transform:none;writing-mode:lr-tb;direction:ltr;text-orientation:mixed;dominant-baseline:auto;baseline-shift:baseline;text-anchor:start;white-space:normal;shape-padding:0;shape-margin:0;inline-size:0;clip-rule:nonzero;display:inline;overflow:visible;visibility:visible;isolation:auto;mix-blend-mode:normal;color-interpolation:sRGB;color-interpolation-filters:linearRGB;solid-color:#000000;solid-opacity:1;vector-effect:none;fill:#ffffff;fill-opacity:1;fill-rule:nonzero;stroke:none;stroke-width:1.8;stroke-linecap:round;stroke-linejoin:miter;stroke-miterlimit:4;stroke-dasharray:none;stroke-dashoffset:0;stroke-opacity:1;color-rendering:auto;image-rendering:auto;shape-rendering:auto;text-rendering:auto;enable-background:accumulate;stop-color:#000000;stop-opacity:1;opacity:1" />
  <path
     id="path431"
     d="M 8 3.5292969 A 0.89999998 0.89999998 0 0 0 7.0996094 4.4277344 A 0.89999998 0.89999998 0 0 0 8 5.328125 C 10.038298 5.328125 11.671875 6.9616666 11.671875 9 A 0.89999998 0.89999998 0 0 0 12.572266 9.9003906 A 0.89999998 0.89999998 0 0 0 13.470703 9 C 13.470703 5.9888734 11.011102 3.5292969 8 3.5292969 z "
     style="color:#000000;font-style:normal;font-variant:normal;font-weight:normal;font-stretch:normal;font-size:medium;line-height:normal;font-family:sans-serif;font-variant-ligatures:normal;font-variant-position:normal;font-variant-caps:normal;font-variant-numeric:normal;font-variant-alternates:normal;font-variant-east-asian:normal;font-feature-settings:normal;font-variation-settings:normal;text-indent:0;text-align:start;text-decoration:none;text-decoration-line:none;text-decoration-style:solid;text-decoration-color:#000000;letter-spacing:normal;word-spacing:normal;text-transform:none;writing-mode:lr-tb;direction:ltr;text-orientation:mixed;dominant-baseline:auto;baseline-shift:baseline;text-anchor:start;white-space:normal;shape-padding:0;shape-margin:0;inline-size:0;clip-rule:nonzero;display:inline;overflow:visible;visibility:visible;isolation:auto;mix-blend-mode:normal;color-interpolation:sRGB;color-interpolation-filters:linearRGB;solid-color:#000000;solid-opacity:1;vector-effect:none;fill:#ffffff;fill-opacity:1;fill-rule:nonzero;stroke:none;stroke-width:1.8;stroke-linecap:round;stroke-linejoin:miter;stroke-miterlimit:4;stroke-dasharray:none;stroke-dashoffset:0;stroke-opacity:1;color-rendering:auto;image-rendering:auto;shape-rendering:auto;text-rendering:auto;enable-background:accumulate;stop-color:#000000;stop-opacity:1;opacity:1" />
</svg>
