<svg width="30" height="30" viewBox="0 0 30 30" fill="none" xmlns="http://www.w3.org/2000/svg">
<path d="M0.344055 20.4742L0.879385 20.6525C3.44535 21.5061 5.8395 22.8084 7.95034 24.4987L12.187 27.8882C12.2157 27.9081 12.2465 27.925 12.279 27.9382L12.276 27.9447L13.9992 28.8069V29.9977H14.9989V22.7492L16.7985 21.3994L16.7932 21.3925C16.8137 21.3807 16.8333 21.3675 16.8522 21.353C20.0178 18.1976 24.1406 16.1814 28.5748 15.6195L29.558 15.4966C29.832 15.4622 30.0263 15.2123 29.9919 14.9383C29.9683 14.7501 29.8401 14.5915 29.661 14.5288L25.5024 13.0736C22.1149 11.8879 18.4075 13.673 17.2218 17.0607C17.1998 17.1234 17.1787 17.1867 17.1587 17.2502L16.0703 20.6962L14.9991 21.4995V14.3033C14.9979 13.3443 15.4776 12.4484 16.2764 11.9174L16.2709 11.9093C16.2998 11.894 16.3271 11.8757 16.3523 11.8549C18.3603 9.84625 19.4093 7.07209 19.2328 4.23737L18.9982 0.472565C18.9835 0.235667 18.8044 0.0420205 18.5695 0.00859921C18.3349 -0.0226595 18.1102 0.113385 18.029 0.335538L16.4122 4.86078C15.8075 6.55091 15.4984 8.33286 15.499 10.1282V11.2545C14.5538 11.9838 14 13.1099 13.9992 14.3039V15.2941L13.4908 14.7857C13.4057 11.0685 10.995 7.80519 7.46711 6.63093L4.15939 5.53117C3.89733 5.44349 3.61423 5.58484 3.52674 5.84671C3.49784 5.93282 3.49313 6.02522 3.51298 6.11388L4.06286 8.59452C4.94361 12.6416 8.53541 15.521 12.6771 15.5005H12.7925L13.9994 16.7072V27.6891L12.9995 27.1891V26.1609C12.9993 21.8402 9.49657 18.3376 5.17579 18.3378C4.33495 18.3378 3.49942 18.4735 2.70163 18.7395L0.344055 19.5252C0.0815998 19.6116 -0.0611287 19.8941 0.0251769 20.1563C0.074719 20.3071 0.19307 20.4255 0.344055 20.4752V20.4742ZM18.112 17.5502C18.8357 15.2654 20.9532 13.7103 23.3499 13.7035C23.9707 13.7044 24.5869 13.81 25.1725 14.0158L27.3805 14.7889C23.757 15.439 20.3646 17.0194 17.5356 19.3754L18.112 17.5502ZM16.4987 10.1282C16.4981 8.44767 16.7869 6.77955 17.3525 5.19715L18.1525 2.96166L18.2358 4.29989C18.366 6.39658 17.7506 8.47185 16.4987 10.1586V10.1282ZM5.04053 8.37493L4.68056 6.75576L7.15059 7.57911C9.88701 8.48994 11.8984 10.8349 12.382 13.6779L8.35395 9.64985L7.647 10.3566L11.7348 14.4444C8.43515 14.0605 5.74474 11.6213 5.04053 8.37493ZM3.01894 19.6878C6.59364 18.4959 10.4575 20.4274 11.6493 24.0019C11.8815 24.6981 11.9998 25.4272 11.9996 26.1609V26.458L8.57532 23.719C6.61153 22.1459 4.41083 20.8938 2.05522 20.0093L3.01894 19.6878Z" fill="#7CCA63"/>
</svg>
