<svg width="42" height="42" viewBox="0 0 42 42" fill="none" xmlns="http://www.w3.org/2000/svg">
<path d="M25.4121 16.2132L24.563 17.1305C25.9294 18.3952 28.6063 17.9102 30.6573 16.0274L29.8115 15.1065C28.1573 16.625 26.1643 16.9094 25.4121 16.2132Z" fill="#133325"/>
<path d="M23.7973 8.75687C21.3773 11.3713 20.5624 14.8361 21.722 17.3658L8.3855 30.218C8.09237 30.5001 7.85994 30.839 7.70247 31.2141C7.54499 31.5892 7.46579 31.9925 7.46973 32.3992C7.47366 32.806 7.56064 33.2077 7.72534 33.5797C7.89003 33.9516 8.12897 34.286 8.42751 34.5623C8.72604 34.8387 9.07787 35.0511 9.46142 35.1866C9.84498 35.3221 10.2522 35.3779 10.658 35.3504C11.0639 35.323 11.4599 35.2129 11.8217 35.027C12.1835 34.841 12.5035 34.5832 12.7621 34.2691L24.5474 19.981C27.159 20.9421 30.5507 19.8624 32.9706 17.248C36.0139 13.9603 36.4323 9.38074 33.9032 7.03974C31.3741 4.69874 26.8405 5.46913 23.7973 8.75687ZM32.0533 16.3989C29.891 18.7349 26.7708 19.6851 24.6309 18.6616C24.5106 18.6047 24.3753 18.5876 24.2446 18.613C24.1139 18.6383 23.9947 18.7047 23.9044 18.8025L23.8806 18.8281L11.7977 33.4727C11.6486 33.6565 11.4629 33.8073 11.2524 33.9155C11.0418 34.0237 10.8111 34.0869 10.5748 34.1011C10.2195 34.125 9.8654 34.039 9.56057 33.8549C9.25575 33.6708 9.01492 33.3973 8.87074 33.0717C8.72655 32.7461 8.68598 32.384 8.75453 32.0345C8.82308 31.6851 8.99743 31.3651 9.25395 31.1181L22.9243 17.9429C23.0245 17.8463 23.0896 17.7189 23.1092 17.5811C23.1288 17.4432 23.1018 17.3028 23.0325 17.182C21.8456 15.1262 22.5523 11.942 24.7146 9.60598C27.2895 6.82416 31.0309 6.08436 33.0541 7.95708C35.0773 9.8298 34.6282 13.6171 32.0533 16.3989Z" fill="#133325"/>
<path d="M30.6431 14.2421L31.4922 13.3247L32.4095 14.1738L31.5604 15.0912L30.6431 14.2421Z" fill="#133325"/>
</svg>
