<svg width="22" height="30" viewBox="0 0 22 30" fill="none" xmlns="http://www.w3.org/2000/svg">
<path d="M10.7183 30C17.63 30 21.4365 25.9398 21.4365 18.5672C21.4365 11.6645 11.6659 0.68978 11.25 0.226786C11.1108 0.081992 10.9189 0 10.7183 0C10.5177 0 10.3254 0.081992 10.1865 0.226786C9.77066 0.68978 0 11.6645 0 18.5672C0 25.9398 3.80652 30 10.7183 30ZM10.7183 1.79371C12.7639 4.1945 20.0074 13.08 20.0074 18.5672C20.0074 23.1308 18.3955 28.5709 10.7183 28.5709C3.04103 28.5709 1.4291 23.1308 1.4291 18.5672C1.4291 13.08 8.67231 4.1945 10.7183 1.79371Z" fill="#133325"/>
<path d="M9.21789 27.1383C9.24161 27.1407 9.26534 27.1418 9.28941 27.1418C9.67007 27.1418 9.98408 26.8431 10.0033 26.4628C10.0221 26.0825 9.73985 25.7542 9.36094 25.7162C7.86834 25.6412 6.47901 24.9318 5.5429 23.7668C3.64243 21.2889 4.27185 17.2944 4.27743 17.2546C4.32942 16.8718 4.06774 16.517 3.68674 16.4535C3.30574 16.3904 2.94323 16.6412 2.86857 17.0201C2.83682 17.2089 2.1282 21.6546 4.40409 24.63C5.575 26.1174 7.32789 27.0308 9.21789 27.1383Z" fill="#133325"/>
</svg>
